<svg width="280" height="58" viewBox="0 0 280 58" fill="none" xmlns="http://www.w3.org/2000/svg">
<path fill-rule="evenodd" clip-rule="evenodd" d="M86.4809 33.3248C86.485 43.2354 79.4301 51.7466 69.6867 53.5896C59.9404 55.4316 50.2619 50.0849 46.6433 40.8568L54.5068 32.9987V33.3248C54.4987 38.7434 58.3251 43.4116 63.6411 44.4749C68.9592 45.5372 74.2873 42.6967 76.3657 37.6923C78.4441 32.6878 76.693 26.9118 72.1846 23.9012C67.6753 20.8886 61.6671 21.48 57.8326 25.3128L35.2229 47.8885C29.3242 53.7871 20.4493 55.5531 12.7388 52.3633C5.02721 49.1715 0 41.6537 0 33.3157C0 24.9766 5.02721 17.4588 12.7388 14.268C20.4493 11.0782 29.3242 12.8432 35.2229 18.7429C36.3902 19.9205 36.8422 21.6299 36.4044 23.2288C35.9687 24.8288 34.7111 26.0743 33.108 26.4946C31.5029 26.9168 29.7954 26.452 28.628 25.2743C24.1946 20.8593 17.0191 20.8694 12.5969 25.2956C8.17263 29.7208 8.17263 36.8913 12.5969 41.3155C17.0191 45.7427 24.1946 45.7518 28.628 41.3368L51.2195 18.7429C57.1202 12.8422 65.9972 11.0762 73.7087 14.269C81.4203 17.4609 86.4465 24.9827 86.4424 33.3248H86.4809ZM176 33.3248C176.027 43.2547 168.967 51.7942 159.205 53.6393C149.439 55.4833 139.746 50.1123 136.144 40.8568L144.008 32.9987V33.3248C144.017 38.7242 147.841 43.3641 153.14 44.4071C158.441 45.4521 163.741 42.6107 165.801 37.6214C167.861 32.6291 166.107 26.8804 161.611 23.8881C157.114 20.8947 151.129 21.4911 147.314 25.3128L124.819 47.8115C118.937 53.7547 110.049 55.5622 102.312 52.3866C94.5755 49.212 89.523 41.6831 89.5189 33.3248V4.35129C89.676 1.90375 91.7088 0 94.1621 0C96.6154 0 98.6482 1.90375 98.8052 4.35129V16.0908C104.513 12.3309 111.716 11.6433 118.034 14.2579C124.351 16.8705 128.958 22.444 130.336 29.1365L140.759 18.7236C146.66 12.8362 155.528 11.0802 163.232 14.269C170.934 17.4609 175.958 24.9726 175.962 33.3056L176 33.3248ZM121.512 33.3248C121.512 28.7386 118.745 24.604 114.506 22.8501C110.264 21.0982 105.383 22.0704 102.141 25.3169C98.8974 28.5624 97.9327 33.4402 99.6939 37.6771C101.455 41.9109 105.599 44.6683 110.188 44.6602C116.446 44.6491 121.512 39.5788 121.512 33.3248Z" fill="#1F32D6"/>
<path d="M209.952 28.884C209.952 30.0147 209.685 31.0813 209.152 32.084C208.619 33.0867 207.765 33.908 206.592 34.548C205.419 35.1667 203.915 35.476 202.08 35.476H198.048V44.5H194.4V22.26H202.08C203.787 22.26 205.227 22.5587 206.4 23.156C207.595 23.732 208.48 24.5213 209.056 25.524C209.653 26.5267 209.952 27.6467 209.952 28.884ZM202.08 32.5C203.467 32.5 204.501 32.1907 205.184 31.572C205.867 30.932 206.208 30.036 206.208 28.884C206.208 26.452 204.832 25.236 202.08 25.236H198.048V32.5H202.08ZM227.799 39.956H218.487L216.887 44.5H213.079L221.047 22.228H225.271L233.239 44.5H229.399L227.799 39.956ZM226.775 36.98L223.159 26.644L219.511 36.98H226.775ZM236.448 33.332C236.448 31.156 236.949 29.204 237.952 27.476C238.976 25.748 240.352 24.404 242.08 23.444C243.829 22.4627 245.738 21.972 247.808 21.972C250.176 21.972 252.277 22.5587 254.112 23.732C255.968 24.884 257.312 26.5267 258.144 28.66H253.76C253.184 27.4867 252.384 26.612 251.36 26.036C250.336 25.46 249.152 25.172 247.808 25.172C246.336 25.172 245.024 25.5027 243.872 26.164C242.72 26.8253 241.813 27.7747 241.152 29.012C240.512 30.2493 240.192 31.6893 240.192 33.332C240.192 34.9747 240.512 36.4147 241.152 37.652C241.813 38.8893 242.72 39.8493 243.872 40.532C245.024 41.1933 246.336 41.524 247.808 41.524C249.152 41.524 250.336 41.236 251.36 40.66C252.384 40.084 253.184 39.2093 253.76 38.036H258.144C257.312 40.1693 255.968 41.812 254.112 42.964C252.277 44.116 250.176 44.692 247.808 44.692C245.717 44.692 243.808 44.212 242.08 43.252C240.352 42.2707 238.976 40.916 237.952 39.188C236.949 37.46 236.448 35.508 236.448 33.332ZM277.742 22.26V25.236H271.822V44.5H268.174V25.236H262.222V22.26H277.742Z" fill="#0A0A0A"/>
</svg>
